<svg style="display: none;" aria-hidden="true" xmlns="http://www.w3.org/2000/svg" xmlns:xlink="http://www.w3.org/1999/xlink"><symbol viewBox="0 0 49 10" fill="inherit" id="svg-arrowRight"><path d="M-1.45705e-07 6.66667L-2.91409e-07 3.33333L44.0345 3.33333L44.0345 -1.92481e-06L49 5L44.0345 10L44.0345 6.66666L-1.45705e-07 6.66667Z" fill="inherit"/></symbol><symbol viewBox="0 0 10 49" fill="inherit" id="svg-arrowUp"><path d="M6.66667 49L3.33333 49L3.33334 4.96551L3.84962e-06 4.96551L5 -4.37114e-07L10 4.96552L6.66667 4.96551L6.66667 49Z" fill="inherit"/></symbol><symbol viewBox="0 0 16 16" fill="inherit" id="svg-facebook"><path d="M15 0H0.625C0.279297 0 0 0.279297 0 0.625V15C0 15.3457 0.279297 15.625 0.625 15.625H15C15.3457 15.625 15.625 15.3457 15.625 15V0.625C15.625 0.279297 15.3457 0 15 0ZM13.1953 4.56055H11.9473C10.9688 4.56055 10.7793 5.02539 10.7793 5.70898V7.21484H13.1152L12.8105 9.57227H10.7793V15.625H8.34375V9.57422H6.30664V7.21484H8.34375V5.47656C8.34375 3.45898 9.57617 2.35938 11.377 2.35938C12.2402 2.35938 12.9805 2.42383 13.1973 2.45313V4.56055H13.1953Z" fill="inherit"/></symbol><symbol viewBox="0 0 16 16" fill="inherit" id="svg-instagramm"><path d="M7.80527 5.20371C6.37167 5.20371 5.20175 6.37363 5.20175 7.80722C5.20175 9.24082 6.37167 10.4107 7.80527 10.4107C9.23886 10.4107 10.4088 9.24082 10.4088 7.80722C10.4088 6.37363 9.23886 5.20371 7.80527 5.20371ZM15.6139 7.80722C15.6139 6.7291 15.6236 5.66074 15.5631 4.58457C15.5025 3.33457 15.2174 2.22519 14.3033 1.31113C13.3873 0.395112 12.2799 0.111909 11.0299 0.0513622C9.95175 -0.00918471 8.88339 0.000580946 7.80722 0.000580946C6.7291 0.000580946 5.66074 -0.00918471 4.58457 0.0513622C3.33457 0.111909 2.22519 0.397065 1.31113 1.31113C0.395112 2.22714 0.111909 3.33457 0.0513622 4.58457C-0.00918471 5.66269 0.000580946 6.73105 0.000580946 7.80722C0.000580946 8.88339 -0.00918471 9.95371 0.0513622 11.0299C0.111909 12.2799 0.397065 13.3893 1.31113 14.3033C2.22714 15.2193 3.33457 15.5025 4.58457 15.5631C5.66269 15.6236 6.73105 15.6139 7.80722 15.6139C8.88534 15.6139 9.9537 15.6236 11.0299 15.5631C12.2799 15.5025 13.3893 15.2174 14.3033 14.3033C15.2193 13.3873 15.5025 12.2799 15.5631 11.0299C15.6256 9.95371 15.6139 8.88535 15.6139 7.80722ZM7.80527 11.8131C5.58847 11.8131 3.79941 10.024 3.79941 7.80722C3.79941 5.59043 5.58847 3.80136 7.80527 3.80136C10.0221 3.80136 11.8111 5.59043 11.8111 7.80722C11.8111 10.024 10.0221 11.8131 7.80527 11.8131ZM11.9752 4.57285C11.4576 4.57285 11.0396 4.15488 11.0396 3.6373C11.0396 3.11972 11.4576 2.70175 11.9752 2.70175C12.4928 2.70175 12.9107 3.11972 12.9107 3.6373C12.9109 3.7602 12.8868 3.88193 12.8398 3.9955C12.7929 4.10908 12.724 4.21227 12.6371 4.29918C12.5502 4.38608 12.447 4.45499 12.3334 4.50195C12.2198 4.54891 12.0981 4.573 11.9752 4.57285Z" fill="inherit"/></symbol><symbol viewBox="0 0 16 16" fill="inherit" id="svg-twitter"><path d="M13.9942 16H2.00586C1.45432 16 0.983422 15.8047 0.593178 15.4141C0.202934 15.0234 0.0078125 14.5521 0.0078125 14V2C0.0078125 1.44792 0.202934 0.976562 0.593178 0.585938C0.983422 0.195312 1.45432 0 2.00586 0H13.9942C14.5457 0 15.0166 0.195312 15.4068 0.585938C15.7971 0.976562 15.9922 1.44792 15.9922 2V14C15.9922 14.5521 15.7971 15.0234 15.4068 15.4141C15.0166 15.8047 14.5457 16 13.9942 16V16ZM12.6985 4C12.6361 4.03125 12.5424 4.09115 12.4176 4.17969C12.2927 4.26823 12.1912 4.33594 12.1132 4.38281C12.0351 4.42969 11.9389 4.47917 11.8244 4.53125C11.7099 4.58333 11.6007 4.61979 11.4966 4.64062C11.1116 4.21354 10.6381 4 10.0761 4C8.85854 4 8.24976 4.51042 8.24976 5.53125V6.46875C6.57432 6.375 5.28911 5.75521 4.39415 4.60938C4.13399 4.88021 4.00391 5.17708 4.00391 5.5C4.00391 6.1875 4.25887 6.70833 4.76879 7.0625C4.69594 7.0625 4.60489 7.06771 4.49562 7.07812C4.38635 7.08854 4.29789 7.08854 4.23025 7.07812C4.16261 7.06771 4.08716 7.04167 4.00391 7C4.00391 7.47917 4.13139 7.8776 4.38635 8.19531C4.64131 8.51302 4.99253 8.71875 5.44001 8.8125C5.33594 8.9375 5.19025 9 5.00293 9C4.83643 9 4.69074 8.95312 4.56586 8.85938C4.56586 9.26562 4.76098 9.58073 5.15123 9.80469C5.54147 10.0286 5.98115 10.1458 6.47025 10.1562C6.28293 10.4375 6.00976 10.6484 5.65074 10.7891C5.29171 10.9297 4.90928 11 4.50342 11C4.35773 11 4.15741 10.9635 3.90245 10.8906C3.64749 10.8177 3.5148 10.7812 3.5044 10.7812C3.6709 11.1146 4.01171 11.401 4.52684 11.6406C5.04196 11.8802 5.69497 12 6.48586 12C7.1831 12 7.8335 11.8776 8.43708 11.6328C9.04066 11.388 9.55578 11.0625 9.98245 10.6562C10.4091 10.25 10.7759 9.78646 11.0829 9.26562C11.3899 8.74479 11.6189 8.20573 11.7698 7.64844C11.9207 7.09115 11.9961 6.54167 11.9961 6C11.9961 5.97917 12.0585 5.9349 12.1834 5.86719C12.3083 5.79948 12.454 5.71094 12.6205 5.60156C12.787 5.49219 12.9119 5.36979 12.9951 5.23438C12.4332 5.23438 12.0585 5.24479 11.8712 5.26562C12.2355 5.04688 12.5112 4.625 12.6985 4Z" fill="inherit"/></symbol></svg>