<svg width="41" height="41" viewBox="0 0 41 41" fill="none" xmlns="http://www.w3.org/2000/svg">
<path d="M35.5867 18.8373L10.5923 3.95985C10.3006 3.78619 9.96803 3.69293 9.62853 3.68955C9.28902 3.68617 8.95468 3.77278 8.65953 3.94058C8.36437 4.10838 8.11893 4.35138 7.94819 4.64485C7.77745 4.93832 7.68751 5.27178 7.6875 5.6113V34.7711C7.6879 35.1076 7.77656 35.4381 7.94465 35.7296C8.11273 36.021 8.35434 36.2633 8.64536 36.4322C8.93638 36.6011 9.26662 36.6907 9.6031 36.6921C9.93957 36.6934 10.2705 36.6064 10.5629 36.4399L35.5571 22.1577C35.8487 21.991 36.0916 21.7508 36.2615 21.461C36.4314 21.1712 36.5224 20.842 36.5253 20.5061C36.5283 20.1702 36.4432 19.8393 36.2785 19.5466C36.1137 19.2538 35.8751 19.0094 35.5865 18.8376L35.5867 18.8373ZM10.25 33.6672V6.73816L33.332 20.4775L10.25 33.6672Z" fill="white"/>
</svg>
