<svg width="40" height="40" viewBox="0 0 40 40" fill="none" xmlns="http://www.w3.org/2000/svg">
<g clip-path="url(#clip0_775_157)">
<path d="M22.4165 0.161131C22.1906 -0.0434807 21.8431 -0.0540122 21.6016 0.13405L2.11482 15.9824C1.88111 16.1659 1.81723 16.4864 1.96369 16.7407L8.92047 28.3313C9.04667 28.5494 9.02019 28.8187 8.85347 29.0098L0.146975 39.0147C-0.192685 39.4044 0.0940002 40.0002 0.622186 40.0002H10.4785C10.6826 40.0002 10.8727 39.9039 10.9896 39.7414L17.6488 30.4526C17.7937 30.2495 17.7968 29.9832 17.655 29.7786L8.63534 16.7602C8.46707 16.5165 8.50447 16.1915 8.72571 15.9914L22.002 3.89378C22.1921 3.72076 22.4726 3.68165 22.7063 3.79298L28.9183 9.04367L22.4165 0.161131ZM11.7079 27.6136C12.9419 26.9863 14.4672 27.4451 15.1169 28.6352C15.7666 29.8268 15.2914 31.2997 14.059 31.927C12.825 32.5544 11.2996 32.0955 10.6499 30.9055C10.0002 29.7139 10.4754 28.241 11.7079 27.6136ZM6.98067 17.7216C6.24371 18.3429 5.12501 18.2707 4.48153 17.5591C3.83804 16.8475 3.91283 15.7673 4.6498 15.1459C5.38677 14.5245 6.50546 14.5968 7.14894 15.3084C7.79243 16.02 7.71764 17.1002 6.98067 17.7216Z" fill="#E55A27"/>
<path d="M32 21.0019C34.7614 21.0019 37 18.7629 37 16.0009C37 13.239 34.7614 11 32 11C29.2386 11 27 13.239 27 16.0009C27 18.7629 29.2386 21.0019 32 21.0019Z" stroke="#E55A27" stroke-width="3" stroke-miterlimit="10"/>
<path d="M32 19C33.6569 19 35 17.6569 35 16C35 14.3431 33.6569 13 32 13C30.3431 13 29 14.3431 29 16C29 17.6569 30.3431 19 32 19Z" fill="#E55A27"/>
<path d="M7.5743 16.3398C7.60234 16.8469 7.40603 17.3614 6.97912 17.7225C6.24215 18.3438 5.12345 18.2716 4.47997 17.56C4.16368 17.2094 4.0219 16.7701 4.04683 16.3413H1.89669C1.87176 16.4752 1.89201 16.6167 1.96524 16.7415L8.92203 28.3322C9.04823 28.5503 9.02175 28.8196 8.85503 29.0107L0.146975 39.0156C-0.192685 39.4053 0.0940002 40.001 0.622186 40.001H10.4785C10.6826 40.001 10.8727 39.9047 10.9896 39.7423L17.6488 30.4535C17.7937 30.2504 17.7968 29.9841 17.655 29.7795L8.63534 16.7611C8.54653 16.6332 8.51849 16.4828 8.5403 16.3398H7.5743V16.3398ZM11.7063 27.613C12.9403 26.9856 14.4656 27.4445 15.1154 28.6346C15.7651 29.8261 15.2899 31.299 14.0574 31.9264C12.8234 32.5538 11.2981 32.0949 10.6484 30.9049C9.99866 29.7133 10.4739 28.2404 11.7063 27.613Z" fill="#E55A27"/>
<path d="M4.64999 15.1459C5.38696 14.5245 6.50565 14.5968 7.14914 15.3084C7.42024 15.6078 7.55579 15.9719 7.57605 16.3405H8.54205C8.56231 16.2111 8.62151 16.0877 8.7259 15.9929L22.0038 3.89378C22.1939 3.72077 22.4743 3.68165 22.708 3.79298L28.9201 9.04367L22.4182 0.161131C22.1923 -0.0434807 21.8449 -0.0540122 21.6034 0.13405L2.11657 15.9824C1.99815 16.0757 1.92337 16.2036 1.89844 16.3405H4.04858C4.0735 15.8966 4.27605 15.4618 4.64999 15.1459Z" fill="#F58220"/>
</g>
<defs>
<clipPath id="clip0_775_157">
<rect width="40" height="40" fill="white"/>
</clipPath>
</defs>
</svg>
